<?xml version="1.0" standalone="no"?>
<!DOCTYPE svg PUBLIC "-//W3C//DTD SVG 20010904//EN"
 "http://www.w3.org/TR/2001/REC-SVG-20010904/DTD/svg10.dtd">
<svg version="1.0" xmlns="http://www.w3.org/2000/svg"
 width="768.000000pt" height="768.000000pt" viewBox="0 0 768.000000 768.000000"
 preserveAspectRatio="xMidYMid meet">
<metadata>
Created by potrace 1.16, written by Peter Selinger 2001-2019
</metadata>
<g transform="translate(0.000000,768.000000) scale(0.100000,-0.100000)"
fill="#000000" stroke="none">
<path d="M3370 7595 c-452 -59 -820 -171 -1224 -371 -476 -236 -933 -605
-1261 -1019 -22 -27 -44 -55 -50 -61 -5 -6 -17 -22 -25 -34 -8 -12 -29 -41
-46 -64 -124 -166 -294 -463 -392 -686 -132 -299 -247 -711 -283 -1010 -6 -52
-15 -124 -19 -160 -5 -36 -7 -209 -6 -385 4 -404 25 -579 115 -925 146 -564
454 -1139 836 -1559 228 -251 455 -448 734 -635 78 -53 144 -96 146 -96 2 0
28 -14 57 -31 50 -30 281 -147 358 -182 299 -135 713 -252 1020 -287 241 -28
311 -32 580 -27 363 6 557 30 870 111 663 170 1250 505 1735 991 490 490 822
1074 995 1750 82 322 105 525 105 925 0 202 -5 354 -13 425 -67 545 -231 1037
-499 1494 -317 541 -803 1027 -1343 1343 -387 228 -855 399 -1270 466 -257 42
-298 45 -620 48 -291 2 -343 0 -500 -21z m2630 -1740 l0 -315 -920 0 -920 0 0
-150 0 -150 865 0 865 0 0 -155 0 -155 -550 0 -550 0 -2 -1352 -3 -1353 -157
-3 -158 -3 0 1356 0 1355 -155 0 -155 0 -2 -1982 -3 -1983 -312 -3 -313 -2 0
1985 0 1986 -152 -3 -153 -3 -3 -1352 -2 -1353 -155 0 -155 0 -2 1353 -3 1352
-557 3 -558 2 0 155 0 155 870 0 870 0 0 150 0 150 -922 2 -923 3 -3 300 c-1
165 0 305 3 312 3 10 435 13 2160 13 l2155 0 0 -315z"/>
</g>
</svg>
